{"title":"3 Days.To.Kill.NEW.SOURCE.HDScr.x264.AC3-SmY [P2PDL]","uid":9775826,"size":1820242672,"categoryP":"video","categoryS":"movies","magnet":"?xt=urn:btih:1248bc84990dfa5046ae19e5431a6da2115a9e19&amp;dn=3+Days.To.Kill.NEW.SOURCE.HDScr.x264.AC3-SmY+%5BP2PDL%5D&amp;tr=udp%3A%2F%2Ftracker.openbittorrent.com%3A80&amp;tr=udp%3A%2F%2Fopen.demonii.com%3A1337&amp;tr=udp%3A%2F%2Ftracker.coppersurfer.tk%3A6969&amp;tr=udp%3A%2F%2Fexodus.desync.com%3A6969","seeders":2,"leechers":0,"uploader":"TeX","files":1,"time":1395032168,"description":" &lt;a href=&quot;http://ia.media-imdb.com/images/M/MV5BMzM0MjE0Nzg1N15BMl5BanBnXkFtZTgwODA4ODE4MDE@._V1_SY317_CR0,0,214,317_.jpg&quot; rel=&quot;nofollow&quot; target=&quot;_NEW&quot;&gt;http://ia.media-imdb.com/images/M/MV5BMzM0MjE0Nzg1N15BMl5BanBnXkFtZTgwODA4ODE4MDE@._V1_SY317_CR0,0,214,317_.jpg&lt;/a&gt;\n\n Format : Matroska \n      File size : 1.70 GiB \n      Duration : 1h 50mn \n      Overall bit rate : 2 190 Kbps \n      Encoded date : UTC 2010-02-22 21:41:31 \n      Writing application : mkvmerge v5.9.0 ('On The Loose') built on Dec  9 2012 15:37:01 \n      Writing library : libebml v1.3.0 + libmatroska v1.4.0 \n   Video #1 \n      ID : 1 \n      Format : AVC \n      Format/Info : Advanced Video Codec \n      Format profile : &lt;a class=&quot;__cf_email__&quot; href=&quot;/cdn-cgi/l/email-protection&quot; data-cfemail=&quot;93dbfaf4fbd3dfa0bda2&quot;&gt;[email&amp;#160;protected]&lt;/a&gt;&lt;script cf-hash='f9e31' type=&quot;text/javascript&quot;&gt;\n/* &lt;![CDATA[ */!function(){try{var t=&quot;currentScript&quot;in document?document.currentScript:function(){for(var t=document.getElementsByTagName(&quot;script&quot;),e=t.length;e--;)if(t[e].getAttribute(&quot;cf-hash&quot;))return t[e]}();if(t&amp;&amp;t.previousSibling){var e,r,n,i,c=t.previousSibling,a=c.getAttribute(&quot;data-cfemail&quot;);if(a){for(e=&quot;&quot;,r=parseInt(a.substr(0,2),16),n=2;a.length-n;n+=2)i=parseInt(a.substr(n,2),16)^r,e+=String.fromCharCode(i);e=document.createTextNode(e),c.parentNode.replaceChild(e,c)}}}catch(u){}}();/* ]]&gt; */&lt;/script&gt; \n      Format settings, CABAC : Yes \n      Format settings, ReFrames : 4 frames \n      Muxing mode : Container profile=&lt;a class=&quot;__cf_email__&quot; href=&quot;/cdn-cgi/l/email-protection&quot; data-cfemail=&quot;f6a3989d98998198b6c5d8c7&quot;&gt;[email&amp;#160;protected]&lt;/a&gt;&lt;script cf-hash='f9e31' type=&quot;text/javascript&quot;&gt;\n/* &lt;![CDATA[ */!function(){try{var t=&quot;currentScript&quot;in document?document.currentScript:function(){for(var t=document.getElementsByTagName(&quot;script&quot;),e=t.length;e--;)if(t[e].getAttribute(&quot;cf-hash&quot;))return t[e]}();if(t&amp;&amp;t.previousSibling){var e,r,n,i,c=t.previousSibling,a=c.getAttribute(&quot;data-cfemail&quot;);if(a){for(e=&quot;&quot;,r=parseInt(a.substr(0,2),16),n=2;a.length-n;n+=2)i=parseInt(a.substr(n,2),16)^r,e+=String.fromCharCode(i);e=document.createTextNode(e),c.parentNode.replaceChild(e,c)}}}catch(u){}}();/* ]]&gt; */&lt;/script&gt; \n      Codec ID : V_MPEG4/ISO/AVC \n      Duration : 1h 50mn \n      Bit rate : 1 955 Kbps \n      Nominal bit rate : 2 000 Kbps \n      Width : 720 pixels \n      Height : 294 pixels \n      Display aspect ratio : 2.40:1 \n      Frame rate : 25.000 fps \n      Resolution : 8 bits \n      Colorimetry : 4:2:0 \n      Scan type : Progressive \n      Bits/(Pixel*Frame) : 0.369 \n      Stream size : 1.51 GiB (89%) \n      Writing library : x264 core 116 r2074 2641b9e \n       \n   Audio #2 \n      ID : 2 \n      Format : AC-3 \n      Format/Info : Audio Coding 3 \n      Codec ID : A_AC3 \n      Duration : 1h 50mn \n      Bit rate mode : Constant \n      Bit rate : 192 Kbps \n      Channel(s) : 2 channels \n      Channel positions : L R \n      Sampling rate : 48.0 KHz \n      Stream size : 152 MiB (9%)\n &lt;a href=&quot;\nhttp://i.imgur.com/XvpfajQ.jpg&quot; rel=&quot;nofollow&quot; target=&quot;_NEW&quot;&gt;\nhttp://i.imgur.com/XvpfajQ.jpg&lt;/a&gt; &lt;a href=&quot;\nhttp://i.imgur.com/1GLkwBx.jpg&quot; rel=&quot;nofollow&quot; target=&quot;_NEW&quot;&gt;\nhttp://i.imgur.com/1GLkwBx.jpg&lt;/a&gt;\n &lt;a href=&quot;\nhttp://i.imgur.com/HCNUvaP.jpg&quot; rel=&quot;nofollow&quot; target=&quot;_NEW&quot;&gt;\nhttp://i.imgur.com/HCNUvaP.jpg&lt;/a&gt;","torrent":{"xt":"urn:btih:1248bc84990dfa5046ae19e5431a6da2115a9e19","amp;dn":"3+Days.To.Kill.NEW.SOURCE.HDScr.x264.AC3-SmY+%5BP2PDL%5D","amp;tr":["udp%3A%2F%2Ftracker.openbittorrent.com%3A80","udp%3A%2F%2Fopen.demonii.com%3A1337","udp%3A%2F%2Ftracker.coppersurfer.tk%3A6969","udp%3A%2F%2Fexodus.desync.com%3A6969"],"infoHash":"1248bc84990dfa5046ae19e5431a6da2115a9e19","infoHashBuffer":{"type":"Buffer","data":[18,72,188,132,153,13,250,80,70,174,25,229,67,26,109,162,17,90,158,25]},"announce":[],"urlList":[]}}